<svg width="19" height="21" viewBox="0 0 19 21" fill="none" xmlns="http://www.w3.org/2000/svg">
<path d="M9.24586 20.9474C7.30456 20.9273 5.43689 20.7599 3.61608 20.2311C2.69898 19.9633 1.80866 19.6286 1.03214 19.0395C0.617098 18.7249 0.275696 18.3501 0.108342 17.8547C-0.166118 17.0447 0.101648 16.3686 0.677345 15.7996C1.35345 15.1302 2.20361 14.7687 3.08724 14.4674C3.84368 14.2131 4.6202 14.0189 5.41011 13.8917C5.62433 13.8583 5.70466 13.8181 5.55069 13.5838C4.79425 12.419 4.01773 11.2676 3.32154 10.0627C1.54089 6.99007 2.61865 2.90664 5.64441 1.02558C8.90446 -0.996054 13.2356 0.0348459 15.1233 3.55597C16.3551 5.85207 16.2613 8.18163 14.8823 10.4242C14.233 11.4752 13.5569 12.5061 12.8875 13.5503C12.7 13.8382 12.7067 13.8449 13.0548 13.9051C13.9987 14.0658 14.9158 14.3068 15.8128 14.6482C16.4822 14.9093 17.1249 15.2306 17.6604 15.7326C18.7114 16.7234 18.6578 18.0153 17.5265 18.9258C16.7165 19.5818 15.7727 19.95 14.7953 20.2311C12.9678 20.7533 11.0868 20.9273 9.24586 20.9474ZM9.2057 17.0313C9.25256 16.9644 9.27933 16.9376 9.29942 16.9041C10.7186 14.6817 12.131 12.4592 13.5502 10.2434C13.9251 9.66104 14.2933 9.07865 14.4941 8.40923C15.6789 4.47976 12.3854 0.677485 8.34215 1.30004C4.43277 1.90251 2.41113 6.44785 4.56665 9.77484C5.55738 11.3011 6.52804 12.8341 7.50538 14.367C8.061 15.2373 8.62331 16.1209 9.2057 17.0313ZM9.16553 19.6956C9.44669 19.6956 9.72784 19.7023 10.009 19.6956C11.8432 19.6286 13.6506 19.3943 15.371 18.7316C15.9601 18.504 16.5291 18.2363 16.9508 17.7543C17.2454 17.4196 17.2387 17.1183 16.9575 16.7769C16.7299 16.5092 16.4488 16.3083 16.1408 16.1477C14.889 15.4716 13.5167 15.1971 12.131 14.9963C11.9838 14.9762 11.9235 15.0498 11.8566 15.1569C11.1738 16.2414 10.4843 17.3192 9.79478 18.3969C9.45338 18.9324 8.95132 18.9324 8.60992 18.3969C7.93381 17.3392 7.2577 16.2883 6.59498 15.2239C6.47448 15.0298 6.34729 14.9695 6.13308 15.0097C5.61763 15.1168 5.09549 15.1904 4.58004 15.3109C3.61608 15.5385 2.66551 15.8264 1.84882 16.4154C1.01875 17.0112 1.03214 17.5468 1.8756 18.1358C2.53163 18.5977 3.27468 18.8588 4.03781 19.073C5.71804 19.5416 7.43175 19.709 9.16553 19.6956Z" fill="#4502C7"/>
<path d="M12.2648 6.80268C12.2581 8.48292 10.8858 9.85522 9.2056 9.86191C7.51197 9.86191 6.13298 8.46284 6.13967 6.75583C6.15306 5.07559 7.53875 3.70329 9.21229 3.70999C10.9059 3.71668 12.2715 5.10906 12.2648 6.80268ZM9.2056 8.6168C10.2164 8.6168 11.0532 7.79342 11.0532 6.7893C11.0532 5.78517 10.2231 4.96179 9.2056 4.96179C8.19478 4.96179 7.35801 5.78517 7.35801 6.7893C7.3647 7.79342 8.19478 8.6168 9.2056 8.6168Z" fill="#4502C7"/>
</svg>
