<svg width="22" height="22" viewBox="0 0 22 22" fill="none" xmlns="http://www.w3.org/2000/svg">
<path d="M21.5551 8.73678V9.79578C21.5551 10.1267 21.3345 10.3474 21.0256 10.3474C20.6947 10.3474 20.4961 10.1267 20.4961 9.75166C20.4961 8.73678 20.4961 7.7219 20.4961 6.68496V5.07439C20.4961 3.68445 19.6357 2.80195 18.2458 2.80195H18.0251C17.8486 2.80195 17.6942 2.80195 17.5398 2.80195C17.3633 2.80195 17.2309 2.84607 17.1206 2.93432C16.9661 3.08876 16.9661 3.28732 16.9882 3.35351C16.9882 3.55208 16.9882 3.79476 16.9661 4.03745C16.9441 4.32427 16.7234 4.52283 16.4366 4.52283C16.1498 4.52283 15.9512 4.32427 15.9071 4.03745C15.8851 3.79476 15.8851 3.55208 15.8851 3.33145C15.8851 3.26526 15.8851 3.08876 15.7527 2.93432C15.6203 2.77989 15.4217 2.77989 15.3556 2.77989C14.0318 2.77989 12.8625 2.77989 11.8035 2.77989C11.7373 2.77989 11.5387 2.77989 11.4064 2.93432C11.2519 3.11082 11.2519 3.30939 11.2519 3.37557C11.2519 3.53001 11.2519 3.68445 11.2519 3.83889V3.9492C11.2519 4.3022 11.0534 4.52283 10.7445 4.54489C10.4356 4.54489 10.215 4.3022 10.1929 3.99333C10.1929 3.79476 10.1929 3.57414 10.1929 3.35351C10.1929 3.28732 10.1929 3.11082 10.0605 2.95639C9.92816 2.80195 9.7296 2.80195 9.66341 2.80195C8.47203 2.80195 7.28065 2.80195 6.17752 2.80195C6.11134 2.80195 5.91277 2.80195 5.7804 2.95639C5.64802 3.11082 5.64802 3.28732 5.64802 3.35351C5.64802 3.5962 5.64802 3.79476 5.64802 3.99333C5.62596 4.32427 5.40533 4.56695 5.09646 4.54489C4.72139 4.54489 4.58902 4.23601 4.58902 3.9492C4.58902 3.88301 4.58902 3.81683 4.61108 3.72858C4.63314 3.48589 4.67727 3.13289 4.41252 2.91226C4.19189 2.73576 3.90508 2.75782 3.66239 2.77989C3.57414 2.77989 3.50795 2.80195 3.44176 2.77989C2.42688 2.77989 1.69882 3.17701 1.27963 3.97126C1.12519 4.25808 1.059 4.58902 1.059 4.96408V7.63365C1.059 11.1857 1.059 14.7599 1.059 18.3119C1.059 19.5695 1.94151 20.452 3.22114 20.452C5.36121 20.452 7.52334 20.452 9.66341 20.452C10.0164 20.452 10.1488 20.5844 10.215 20.7168C10.3032 20.8933 10.3253 21.0698 10.215 21.2463C10.1267 21.4228 9.95022 21.511 9.7296 21.511C9.33247 21.511 8.91328 21.511 8.53822 21.511C8.36172 21.511 8.18522 21.511 8.00872 21.511H6.53052C5.40533 21.511 4.28014 21.511 3.15495 21.511C1.65469 21.511 0.375064 20.4961 0.0661877 19.0621C0.0220626 18.8414 0 18.5767 0 18.2899C0 16.6131 0 14.9364 0 13.2596L0 9.66341C0 8.09697 0 6.50846 0 4.91995C0 3.4197 1.01488 2.14007 2.44895 1.80913C2.86814 1.72088 3.30939 1.72088 3.7727 1.74294H3.97126C4.10364 1.74294 4.28014 1.74294 4.43458 1.58851C4.58902 1.43407 4.56695 1.19138 4.56695 1.12519C4.56695 0.992816 4.56695 0.860441 4.56695 0.728065V0.59569C4.56695 0.264751 4.76552 0.0441252 5.07439 0.0220626C5.36121 0.0220626 5.62596 0.242688 5.64802 0.573627C5.67008 0.794253 5.64802 1.01488 5.64802 1.2355C5.64802 1.30169 5.64802 1.47819 5.7804 1.63263C5.91277 1.76501 6.11134 1.76501 6.15546 1.76501C7.32478 1.76501 8.49409 1.76501 9.68547 1.76501C9.75166 1.76501 9.92816 1.76501 10.0605 1.63263C10.1929 1.47819 10.1929 1.30169 10.1929 1.2355C10.1929 1.03694 10.1929 0.838378 10.1929 0.617752C10.1929 0.264751 10.4356 0.0220626 10.7445 0.0220626C11.1195 0 11.2519 0.308876 11.2519 0.59569C11.2519 0.661877 11.2519 0.728065 11.2519 0.816315C11.2299 1.059 11.1857 1.36788 11.4064 1.58851C11.649 1.80913 11.9579 1.78707 12.2006 1.74294C12.2668 1.74294 12.355 1.72088 12.3992 1.72088C12.8625 1.72088 13.3037 1.72088 13.7671 1.72088C14.2745 1.72088 14.7819 1.72088 15.3114 1.72088C15.4438 1.72088 15.6203 1.69882 15.7527 1.56644C15.9071 1.41201 15.8851 1.19138 15.8851 1.12519C15.863 0.926628 15.8851 0.706003 15.8851 0.551564C15.9071 0.220626 16.1057 0 16.4146 0C16.7234 0 16.922 0.220626 16.9441 0.573627C16.9441 0.750128 16.9661 0.948691 16.9441 1.10313C16.9441 1.16932 16.922 1.38994 17.0764 1.54438C17.2088 1.69882 17.4074 1.72088 17.5398 1.72088C17.6501 1.72088 17.7383 1.72088 17.8486 1.72088C18.2237 1.72088 18.5546 1.72088 18.9076 1.76501C20.3638 1.98563 21.5331 3.28732 21.5551 4.72139C21.5551 6.06721 21.5551 7.43509 21.5551 8.73678Z" fill="#4502C7"/>
<path d="M16.637 11.7166H16.5929C13.9233 11.7166 11.7391 13.9007 11.695 16.6144C11.6729 17.8941 12.1804 19.1296 13.107 20.0783C14.0336 21.027 15.2691 21.5565 16.5708 21.5565C17.8725 21.5565 19.1301 21.0711 20.0567 20.1445C21.0054 19.2178 21.5128 17.9823 21.5349 16.6806C21.557 13.9449 19.3728 11.7386 16.637 11.7166ZM19.2845 19.3943C18.5565 20.1003 17.6078 20.4754 16.615 20.4754C16.5708 20.4754 16.5488 20.4754 16.5267 20.4754C14.4528 20.4313 12.754 18.6442 12.7981 16.5924C12.7981 16.0629 12.9305 15.5554 13.1291 15.0921C13.3276 14.6288 13.6144 14.2096 13.9895 13.8566C14.7176 13.1506 15.6883 12.7756 16.6811 12.7976C18.7991 12.8417 20.52 14.6068 20.4759 16.7248C20.4538 17.7396 20.0347 18.6883 19.2845 19.3943Z" fill="#4502C7"/>
<path d="M5.62566 12.5549C5.62566 12.6873 5.55947 12.8196 5.44916 12.93C5.33884 13.0403 5.20647 13.1065 5.07409 13.1065C4.78728 13.1065 4.54459 12.8638 4.54459 12.5549C4.54459 12.246 4.76522 12.0254 5.07409 12.0254C5.38297 12.0254 5.62566 12.2681 5.62566 12.5549Z" fill="#4502C7"/>
<path d="M9.39822 16.3283C9.39822 16.4828 9.33203 16.5931 9.24378 16.7034C9.15553 16.8137 9.02316 16.8578 8.86872 16.8578C8.58191 16.8578 8.33922 16.6151 8.33922 16.3283C8.33922 16.196 8.38334 16.0415 8.49366 15.9533C8.60397 15.843 8.73634 15.7988 8.86872 15.7988C9.15553 15.7988 9.39822 16.0415 9.39822 16.3283Z" fill="#4502C7"/>
<path d="M9.3985 12.5549C9.3985 12.8417 9.15581 13.1065 8.869 13.1065C8.73663 13.1065 8.60425 13.0623 8.49394 12.952C8.38362 12.8417 8.31744 12.7093 8.31744 12.5549C8.31744 12.2681 8.56012 12.0254 8.84694 12.0254C9.17788 12.0254 9.3985 12.246 9.3985 12.5549Z" fill="#4502C7"/>
<path d="M5.62566 16.3282C5.62566 16.4606 5.55947 16.5929 5.44916 16.7032C5.33884 16.8136 5.20647 16.8797 5.05203 16.8577C4.76522 16.8577 4.54459 16.615 4.54459 16.3061C4.54459 16.0193 4.78728 15.7766 5.07409 15.7766C5.38297 15.7987 5.62566 16.0414 5.62566 16.3282Z" fill="#4502C7"/>
<path d="M5.62644 8.78048C5.62644 9.06729 5.38375 9.30998 5.09694 9.30998C4.81012 9.30998 4.56744 9.08935 4.56744 8.80254C4.56744 8.49366 4.78806 8.27304 5.07488 8.25098H5.09694C5.22931 8.25098 5.38375 8.31716 5.49406 8.40541C5.58231 8.51573 5.62644 8.6481 5.62644 8.78048Z" fill="#4502C7"/>
<path d="M9.39764 8.78252C9.39764 9.06934 9.15495 9.28996 8.86814 9.28996C8.58133 9.28996 8.33864 9.04727 8.33864 8.76046C8.33864 8.62808 8.40483 8.47365 8.49308 8.3854C8.60339 8.29714 8.73577 8.23096 8.86814 8.23096H8.8902C9.17702 8.25302 9.39764 8.49571 9.39764 8.78252Z" fill="#4502C7"/>
<path d="M13.1711 8.78048C13.1711 9.08935 12.9284 9.30998 12.6416 9.30998C12.3548 9.30998 12.1121 9.06729 12.1121 8.78048C12.1121 8.6481 12.1562 8.51573 12.2665 8.40541C12.3768 8.2951 12.5092 8.25098 12.6636 8.25098C12.9504 8.25098 13.1711 8.4716 13.1711 8.78048Z" fill="#4502C7"/>
<path d="M16.945 8.78048C16.945 9.08935 16.7243 9.30998 16.4375 9.30998C16.3052 9.30998 16.1507 9.26585 16.0404 9.15554C15.9301 9.04523 15.886 8.91285 15.886 8.78048C15.886 8.49366 16.1287 8.25098 16.4155 8.25098C16.5699 8.25098 16.7023 8.31716 16.7905 8.40541C16.8788 8.49366 16.945 8.62604 16.945 8.78048Z" fill="#4502C7"/>
<path d="M18.3129 16.9445C18.2247 17.0769 18.0923 17.1431 17.9379 17.1431C17.6069 17.1652 17.2539 17.1431 16.923 17.1431H16.6803C16.3052 17.1431 16.1067 16.9445 16.0846 16.5695C16.0846 16.3709 16.0846 16.1944 16.0846 15.9958C16.0846 15.9076 16.0846 15.8193 16.0846 15.709V15.4663C16.0846 15.2898 16.0846 15.0913 16.0846 14.9148C16.0846 14.5397 16.3052 14.3191 16.6362 14.3191C16.945 14.3191 17.1436 14.5397 17.1436 14.9368C17.1436 14.981 17.1436 15.0472 17.1436 15.1133C17.1436 15.2457 17.1436 15.3781 17.1436 15.4884C17.1436 15.5546 17.1215 15.7752 17.276 15.9297C17.4084 16.0841 17.629 16.1062 17.7172 16.1062H17.7393C18.2026 16.1062 18.3129 16.3047 18.3791 16.5033C18.4453 16.6577 18.4232 16.8122 18.3129 16.9445Z" fill="#4502C7"/>
</svg>
