<svg width="20" height="21" viewBox="0 0 20 21" fill="none" xmlns="http://www.w3.org/2000/svg">
<path d="M2.23654e-05 8.42928C-0.0100833 3.9929 3.40562 0.34477 7.80157 0.02139C12.1268 -0.291885 16.0276 2.87118 16.6339 7.19639C16.9573 9.47016 16.4116 11.5418 15.0372 13.381C14.8149 13.6741 14.825 13.8257 15.0877 14.0884C16.5935 15.6245 18.079 17.1909 19.5746 18.7471C20.1001 19.3029 20.1405 19.9497 19.6858 20.4045C19.2411 20.8592 18.5641 20.8289 18.0689 20.3236C16.553 18.7673 15.0473 17.201 13.5517 15.6245C13.2485 15.3112 13.0666 15.291 12.6826 15.5234C7.77125 18.5652 1.13185 15.574 0.141501 9.87438C0.0606562 9.37921 0.0202336 8.87392 2.23654e-05 8.42928ZM8.35738 2.1941C4.94168 2.1941 2.19294 4.94283 2.18284 8.34843C2.17273 11.7439 4.93157 14.5129 8.33717 14.5331C11.763 14.5432 14.5319 11.7742 14.5218 8.33833C14.5117 4.91252 11.7832 2.1941 8.35738 2.1941Z" fill="white"/>
</svg>
