<svg width="17" height="20" viewBox="0 0 17 20" fill="none" xmlns="http://www.w3.org/2000/svg">
<path d="M8.21308 19.7565C6.66428 19.7565 5.10929 19.7565 3.5605 19.7565C2.9162 19.7565 2.29668 19.6697 1.72053 19.3662C0.685931 18.8272 0.109779 17.9537 0.0292417 16.8075C-0.0760764 15.2835 0.0973887 13.7781 0.642565 12.3346C1.05145 11.2629 1.66477 10.3584 2.76132 9.86894C3.25693 9.64591 3.77733 9.55918 4.31011 9.5406C4.52075 9.5344 4.7128 9.62113 4.88627 9.72645C5.14027 9.88133 5.39427 10.0486 5.64827 10.2097C6.61472 10.8354 7.65551 11.1699 8.81401 11.0027C9.64417 10.885 10.3814 10.5318 11.0691 10.061C11.4098 9.82557 11.7443 9.5344 12.1904 9.5406C12.9338 9.55299 13.6277 9.73884 14.2534 10.1601C15.0092 10.6743 15.48 11.3992 15.796 12.2293C16.3783 13.7471 16.5952 15.3331 16.4279 16.95C16.273 18.4431 15.1083 19.5458 13.6153 19.7069C13.3179 19.7379 13.0205 19.7503 12.717 19.7503C11.2177 19.7565 9.71851 19.7565 8.21308 19.7565ZM8.23166 18.598C9.24148 18.598 10.2575 18.598 11.2673 18.598C11.9674 18.598 12.6736 18.6103 13.3737 18.5732C14.5074 18.505 15.2756 17.6935 15.3066 16.5659C15.319 16.1818 15.3128 15.7915 15.288 15.4074C15.226 14.4348 15.0773 13.4807 14.687 12.5824C14.3959 11.901 14.0056 11.2876 13.2993 10.9593C12.748 10.6991 12.1966 10.5628 11.6824 11.046C11.639 11.0832 11.5833 11.1142 11.5337 11.1451C10.1955 12.0373 8.73967 12.4276 7.14131 12.0992C6.21823 11.9134 5.39427 11.4921 4.64465 10.9407C4.35348 10.7301 4.06231 10.6743 3.72777 10.7672C3.52332 10.823 3.31888 10.885 3.12683 10.9841C2.51971 11.2876 2.15419 11.8142 1.8816 12.4028C1.2435 13.7533 1.12579 15.203 1.17535 16.6651C1.20013 17.3651 1.53467 17.9227 2.16038 18.282C2.60644 18.536 3.09586 18.5918 3.59767 18.5918C5.14027 18.5918 6.68287 18.598 8.23166 18.598Z" fill="#4502C7"/>
<path d="M12.8719 4.75171C12.8781 7.38466 10.7593 9.50341 8.12019 9.50961C5.46865 9.5158 3.35609 7.39705 3.36229 4.74551C3.36848 2.10636 5.47484 0 8.11399 0C10.7531 0 12.8719 2.11875 12.8719 4.75171ZM8.1016 1.1585C6.11295 1.16469 4.5084 2.76925 4.5084 4.7579C4.5084 6.74655 6.13773 8.36969 8.12638 8.3573C10.146 8.34491 11.7258 6.74655 11.7072 4.73312C11.6948 2.73208 10.1026 1.1523 8.1016 1.1585Z" fill="#4502C7"/>
</svg>
